<!DOCTYPE html>
<html lang="en">
<head>
<link rel="shortcut icon" href="FYCLOGO.ico" /><body>
<body style="background-color:rgb(64, 64, 64);">
<meta charset="UTF-8">
<meta http-equiv="X-UA-Compatible" content="IE=edge">
<meta name="viewport" content="width=device-width, initial-scale=1.0">
<title>FYC/Movies/Puss In Boots (2011) 1080p 5.1 - 2.0 x264 Phun Psyz</title>
</head>
<body>

<center><h1>FYC/Movies/Puss In Boots (2011) 1080p 5.1 - 2.0 x264 Phun Psyz</h1></center>
<center><h1>The best way to get banned form your ISP</h1></center>
<center><h1>============================</h1></center>

<!--Back-->
<h1>
<style> 
.button {
background-color: rgb(36, 37, 36);
border: none;
color: rgb(0, 0, 0);
padding: 40px 68px;
text-align: center;
text-decoration: none;
display: inline-block;
font-size: 40px;
margin: 4px 2px;
cursor: pointer;
}
</style>
</head>
<body>
<center><a href="Movies.html" class="button"><center>Back</center></a></center>
<h1>
<center><h1>============================</h1></center>
<!--End--> 

<!--Stats-->
<center><img src="Puss In Boots (2011) 1080p 5.1 - 2.0 x264 Phun Psyz.jpg"></center>
<center><h1>Stats</h1></center>
<center><h1>Title: Puss In Boots (2011) 1080p 5.1 - 2.0 x264 Phun Psyz</h1></center>
<center><h1>Category: Movies</h1></center>
<center><h1>Type: HD</h1></center>
<center><h1>Language: English</h1></center>
<center><h1>Total size: 1.6 GB</h1></center>
<center><h1>Uploaded By: psyzbackup</h1></center>
<center><h1>============================</h1></center>
<center><h1>Info: 
<p>
!!! Remember I don't own or edit anything on links that might be on this torrent!!!
<hr>
www.imdb.com/title/tt0448694/
Long before he even met Shrek, the notorious fighter, lover and outlaw Puss in Boots becomes a hero when he sets off on an adventure with the tough and street smart Kitty Softpaws and the mastermind Humpty Dumpty to save his town. This is the true story of The Cat, The Myth, The Legend... The Boots.
Source: 4K HDR Remux 
<center><img src="Puss-In-Boots-2011-1080p-5.1---2.0-x264-Phun-Psyz.mp4.jpg"></center>
</p></h1></center>
<center><h1>============================</h1></center>
Format : MPEG-4
Format profile : Base Media / Version 2
Codec ID : mp42 (mp42/iso2/avc1/mp41)
File size : 1.60 GiB
Duration : 1 h 30 min
Overall bit rate mode : Variable
Overall bit rate : 2 546 kb/s

Video
ID : 1
Format : AVC
Format/Info : Advanced Video Codec
Format profile : High@L4.1
Format settings : CABAC / 1 Ref Frames
Format settings, CABAC : Yes
Format settings, Reference : 1 frame
Codec ID : avc1
Codec ID/Info : Advanced Video Coding
Duration : 1 h 30 min
Bit rate : 2 089 kb/s
Width : 1 920 pixels
Height : 1 080 pixels
Display aspect ratio : 2.35:1
Frame rate mode : Variable
Frame rate : 23.976 (24000/1001) FPS
Color space : YUV
Chroma subsampling : 4:2:0
Bit depth : 8 bits
Scan type : Progressive
Bits/(Pixel*Frame) : 0.042
Stream size : 1.32 GiB (82%)
Color primaries : BT.709
Transfer characteristics : BT.709
Matrix coefficients : BT.709

Audio #1
ID : 2
Format : E-AC-3
Format/Info : Enhanced AC-3
Commercial name : Dolby Digital Plus
Codec ID : ec-3
Duration : 1 h 30 min
Bit rate mode : Constant
Bit rate : 320 kb/s
Channel(s) : 6 channels
Channel layout : L R C LFE Ls Rs
Sampling rate : 48.0 kHz
Frame rate : 31.250 FPS (1536 SPF)
Compression mode : Lossy
Stream size : 206 MiB (13%)
Title : Surround
Language : English

Audio #2
ID : 3
Format : AAC LC SBR
Format/Info : Advanced Audio Codec Low Complexity with Spectral Band Replication
Commercial name : HE-AAC
Format settings : NBC
Codec ID : mp4a-40-5
Duration : 1 h 30 min
Bit rate mode : Constant
Bit rate : 128 kb/s
Channel(s) : 2 channels
Channel layout : L R
Sampling rate : 48.0 kHz
Frame rate : 23.438 FPS (2048 SPF)
Compression mode : Lossy
Stream size : 82.6 MiB (5%)
Title : Stereo
Language : English

Text
Language : Arabic
Language : Bengali
Language : Chinese
Language : Chinese
Language : Czech
Language : Danish
Language : English
Language : English
Language : Finnish
Language : French
Language : German
Language : Greek
Language : Hebrew
Language : Hindi
Language : Hungarian
Language : Icelandic
Language : Indonesian
Language : Italian
Language : Japanese
Language : Korean
Language : Norwegian Bokmal
Language : Polish
Language : Portuguese
Language : Portuguese
Language : Romanian
Language : Russian
Language : Croatian
Language : Spanish
Language : Spanish
Language : Swedish
Language : Tamil
Language : Thai
Language : Turkish
Language : Ukrainian
Language : Vietnamese
Default : No
Forced : No

Menu
00:00:00.000 : Stealing "Magic Beans"
00:03:21.535 : Planting "Magic BEans"
00:07:16.436 : The Giant's Castle
00:11:43.369 : Goldern Goose
00:15:48.948 : Happy Movement
00:19:18.491 : Telling the Revenge
00:25:53.552 : Puss in Prison
00:29:17.756 : Saving "San Ricardo"
00:34:00.705 : Opening Credits & Intro
00:39:11.683 : Puss in BAR
00:44:06.644 : Jack & Jill
00:49:28.299 : Dance Fight
00:53:59.236 : Kitty Softpaws Intro
00:57:31.448 : Story Behind Past
01:02:58.441 : Brothers Forever
01:08:06.749 : No Stealing Anymore
01:16:43.265 : He's no Outlaw...He's Hero
01:19:34.103 : Glitter Box & End Credits

<!--Download-->
<h1>
<style> 
.button {
background-color: rgb(36, 37, 36);
border: none;
color: rgb(0, 0, 0);
padding: 40px 68px;
text-align: center;
text-decoration: none;
display: inline-block;
font-size: 40px;
margin: 4px 2px;
cursor: pointer;
}
</style>
</head>
<body>
<center><a href="magnet:?xt=urn:btih:425E0ED307A741F2CE4933A4E0168C4A1D824188&dn=Puss+In+Boots+%282011%29+1080p+5.1+-+2.0+x264+Phun+Psyz&tr=udp%3A%2F%2Fipv4.tracker.harry.lu%3A80%2Fannounce&tr=udp%3A%2F%2Ftracker.moeking.me%3A6969%2Fannounce&tr=udp%3A%2F%2Ftracker.opentrackr.org%3A1337%2Fannounce&tr=udp%3A%2F%2Ftracker.openbittorrent.com%3A6969&tr=udp%3A%2F%2Fexplodie.org%3A6969%2Fannounce&tr=udp%3A%2F%2Fopen.stealth.si%3A80%2Fannounce&tr=http%3A%2F%2Fipv4announce.sktorrent.eu%3A6969%2Fannounce&tr=udp%3A%2F%2Fvibe.sleepyinternetfun.xyz%3A1738%2Fannounce&tr=udp%3A%2F%2Ftracker.torrent.eu.org%3A451%2Fannounce&tr=http%3A%2F%2Ftracker.bt4g.com%3A2095%2Fannounce&tr=udp%3A%2F%2Ftracker.opentrackr.org%3A1337%2Fannounce&tr=http%3A%2F%2Ftracker.openbittorrent.com%3A80%2Fannounce&tr=udp%3A%2F%2Fopentracker.i2p.rocks%3A6969%2Fannounce&tr=udp%3A%2F%2Ftracker.internetwarriors.net%3A1337%2Fannounce&tr=udp%3A%2F%2Ftracker.leechers-paradise.org%3A6969%2Fannounce&tr=udp%3A%2F%2Fcoppersurfer.tk%3A6969%2Fannounce&tr=udp%3A%2F%2Ftracker.zer0day.to%3A1337%2Fannounce" class="button"><center>Downlaod</center></a></center>
<h1>
<center><h1>============================</h1></center>
<!--End--> 

</body>
</html>